<svg xmlns="http://www.w3.org/2000/svg" xmlns:xlink="http://www.w3.org/1999/xlink" width="180" zoomAndPan="magnify" viewBox="0 0 135 135.000003" height="180" preserveAspectRatio="xMidYMid meet" version="1.0"><defs><clipPath id="c97e39d631"><path d="M 0.496094 0 L 134.503906 0 L 134.503906 134.007812 L 0.496094 134.007812 Z M 0.496094 0 " clip-rule="nonzero"/></clipPath><clipPath id="86d6f9bdad"><path d="M 67.5 0 C 30.496094 0 0.496094 30 0.496094 67.003906 C 0.496094 104.007812 30.496094 134.007812 67.5 134.007812 C 104.503906 134.007812 134.503906 104.007812 134.503906 67.003906 C 134.503906 30 104.503906 0 67.5 0 Z M 67.5 0 " clip-rule="nonzero"/></clipPath><clipPath id="a70900d760"><path d="M 32.703125 27.976562 L 49.414062 27.976562 L 49.414062 82.605469 L 32.703125 82.605469 Z M 32.703125 27.976562 " clip-rule="nonzero"/></clipPath><clipPath id="271b298b16"><path d="M 47.210938 27.976562 L 34.90625 27.976562 C 33.6875 27.976562 32.703125 28.957031 32.703125 30.179688 L 32.703125 80.34375 C 32.703125 81.5625 33.6875 82.546875 34.90625 82.546875 L 47.210938 82.546875 C 48.429688 82.546875 49.414062 81.5625 49.414062 80.34375 L 49.414062 30.179688 C 49.414062 28.957031 48.429688 27.976562 47.210938 27.976562 Z M 47.210938 27.976562 " clip-rule="nonzero"/></clipPath><clipPath id="f3a3e0db44"><path d="M 32.707031 66.996094 L 80.484375 66.996094 L 80.484375 83.707031 L 32.707031 83.707031 Z M 32.707031 66.996094 " clip-rule="nonzero"/></clipPath><clipPath id="abd2f0ec56"><path d="M 32.707031 69.199219 L 32.707031 81.503906 C 32.707031 82.722656 33.6875 83.707031 34.910156 83.707031 L 78.21875 83.707031 C 79.4375 83.707031 80.421875 82.722656 80.421875 81.503906 L 80.421875 69.199219 C 80.421875 67.980469 79.4375 66.996094 78.21875 66.996094 L 34.910156 66.996094 C 33.6875 66.996094 32.707031 67.980469 32.707031 69.199219 Z M 32.707031 69.199219 " clip-rule="nonzero"/></clipPath><clipPath id="1b6f36658f"><path d="M 63.703125 44.292969 L 80.414062 44.292969 L 80.414062 82.542969 L 63.703125 82.542969 Z M 63.703125 44.292969 " clip-rule="nonzero"/></clipPath><clipPath id="cc11e4b63b"><path d="M 65.90625 82.542969 L 78.210938 82.542969 C 79.429688 82.542969 80.414062 81.558594 80.414062 80.339844 L 80.414062 46.550781 C 80.414062 45.332031 79.429688 44.347656 78.210938 44.347656 L 65.90625 44.347656 C 64.6875 44.347656 63.703125 45.332031 63.703125 46.550781 L 63.703125 80.339844 C 63.703125 81.558594 64.6875 82.542969 65.90625 82.542969 Z M 65.90625 82.542969 " clip-rule="nonzero"/></clipPath><clipPath id="0ad7c80628"><path d="M 63.710938 21.039062 L 82.59375 21.039062 L 82.59375 39.921875 L 63.710938 39.921875 Z M 63.710938 21.039062 " clip-rule="nonzero"/></clipPath><clipPath id="1ad96eab3e"><path d="M 73.152344 21.039062 C 67.9375 21.039062 63.710938 25.265625 63.710938 30.480469 C 63.710938 35.695312 67.9375 39.921875 73.152344 39.921875 C 78.367188 39.921875 82.59375 35.695312 82.59375 30.480469 C 82.59375 25.265625 78.367188 21.039062 73.152344 21.039062 Z M 73.152344 21.039062 " clip-rule="nonzero"/></clipPath><clipPath id="a99db83722"><path d="M 85.96875 44.28125 L 102.675781 44.28125 L 102.675781 83.707031 L 85.96875 83.707031 Z M 85.96875 44.28125 " clip-rule="nonzero"/></clipPath><clipPath id="b155b7796d"><path d="M 88.171875 83.707031 L 100.472656 83.707031 C 101.695312 83.707031 102.675781 82.722656 102.675781 81.503906 L 102.675781 46.550781 C 102.675781 45.328125 101.695312 44.34375 100.472656 44.34375 L 88.171875 44.34375 C 86.949219 44.34375 85.96875 45.328125 85.96875 46.550781 L 85.96875 81.503906 C 85.96875 82.722656 86.949219 83.707031 88.171875 83.707031 Z M 88.171875 83.707031 " clip-rule="nonzero"/></clipPath><clipPath id="8cbdeec36b"><path d="M 84.886719 88.398438 L 103.769531 88.398438 L 103.769531 107.28125 L 84.886719 107.28125 Z M 84.886719 88.398438 " clip-rule="nonzero"/></clipPath><clipPath id="14a4be7d94"><path d="M 94.328125 88.398438 C 89.113281 88.398438 84.886719 92.625 84.886719 97.839844 C 84.886719 103.054688 89.113281 107.28125 94.328125 107.28125 C 99.542969 107.28125 103.769531 103.054688 103.769531 97.839844 C 103.769531 92.625 99.542969 88.398438 94.328125 88.398438 Z M 94.328125 88.398438 " clip-rule="nonzero"/></clipPath><clipPath id="a65b6e9aa3"><path d="M 32.707031 88.390625 L 80.484375 88.390625 L 80.484375 105.097656 L 32.707031 105.097656 Z M 32.707031 88.390625 " clip-rule="nonzero"/></clipPath><clipPath id="35a4ad235e"><path d="M 32.707031 90.59375 L 32.707031 102.894531 C 32.707031 104.117188 33.6875 105.097656 34.910156 105.097656 L 78.21875 105.097656 C 79.4375 105.097656 80.421875 104.117188 80.421875 102.894531 L 80.421875 90.59375 C 80.421875 89.371094 79.4375 88.390625 78.21875 88.390625 L 34.910156 88.390625 C 33.6875 88.390625 32.707031 89.371094 32.707031 90.59375 Z M 32.707031 90.59375 " clip-rule="nonzero"/></clipPath></defs><g clip-path="url(#c97e39d631)"><g clip-path="url(#86d6f9bdad)"><path fill="#16ff80" d="M 0.496094 0 L 134.503906 0 L 134.503906 134.007812 L 0.496094 134.007812 Z M 0.496094 0 " fill-opacity="1" fill-rule="nonzero"/></g></g><g clip-path="url(#a70900d760)"><g clip-path="url(#271b298b16)"><path fill="#1b1f1e" d="M 32.703125 27.976562 L 49.414062 27.976562 L 49.414062 82.542969 L 32.703125 82.542969 Z M 32.703125 27.976562 " fill-opacity="1" fill-rule="nonzero"/></g></g><g clip-path="url(#f3a3e0db44)"><g clip-path="url(#abd2f0ec56)"><path fill="#1b1f1e" d="M 32.707031 83.707031 L 32.707031 66.996094 L 80.417969 66.996094 L 80.417969 83.707031 Z M 32.707031 83.707031 " fill-opacity="1" fill-rule="nonzero"/></g></g><g clip-path="url(#1b6f36658f)"><g clip-path="url(#cc11e4b63b)"><path fill="#1b1f1e" d="M 80.414062 82.542969 L 63.703125 82.542969 L 63.703125 44.359375 L 80.414062 44.359375 Z M 80.414062 82.542969 " fill-opacity="1" fill-rule="nonzero"/></g></g><g clip-path="url(#0ad7c80628)"><g clip-path="url(#1ad96eab3e)"><path fill="#1b1f1e" d="M 63.710938 21.039062 L 82.59375 21.039062 L 82.59375 39.921875 L 63.710938 39.921875 Z M 63.710938 21.039062 " fill-opacity="1" fill-rule="nonzero"/></g></g><g clip-path="url(#a99db83722)"><g clip-path="url(#b155b7796d)"><path fill="#1b1f1e" d="M 102.675781 83.707031 L 85.96875 83.707031 L 85.96875 44.347656 L 102.675781 44.347656 Z M 102.675781 83.707031 " fill-opacity="1" fill-rule="nonzero"/></g></g><g clip-path="url(#8cbdeec36b)"><g clip-path="url(#14a4be7d94)"><path fill="#1b1f1e" d="M 84.886719 88.398438 L 103.769531 88.398438 L 103.769531 107.28125 L 84.886719 107.28125 Z M 84.886719 88.398438 " fill-opacity="1" fill-rule="nonzero"/></g></g><g clip-path="url(#a65b6e9aa3)"><g clip-path="url(#35a4ad235e)"><path fill="#1b1f1e" d="M 32.707031 105.097656 L 32.707031 88.390625 L 80.417969 88.390625 L 80.417969 105.097656 Z M 32.707031 105.097656 " fill-opacity="1" fill-rule="nonzero"/></g></g></svg>