<svg xmlns="http://www.w3.org/2000/svg" xmlns:xlink="http://www.w3.org/1999/xlink" width="400" zoomAndPan="magnify" viewBox="0 0 300 74.999997" height="100" preserveAspectRatio="xMidYMid meet" version="1.0"><defs><g/><clipPath id="65f08c5a44"><path d="M 0.410156 14.21875 L 127.34375 14.21875 L 127.34375 62.433594 L 0.410156 62.433594 Z M 0.410156 14.21875 " clip-rule="nonzero"/></clipPath><clipPath id="d4da6d3c5d"><path d="M 35.128906 14.21875 L 121.257812 14.21875 C 123.40625 14.21875 125.390625 15.375 126.457031 17.242188 C 127.519531 19.109375 127.5 21.40625 126.40625 23.253906 L 108.554688 53.398438 C 105.238281 58.996094 99.214844 62.433594 92.707031 62.433594 L 6.578125 62.433594 C 4.429688 62.433594 2.445312 61.277344 1.378906 59.410156 C 0.316406 57.542969 0.335938 55.246094 1.429688 53.398438 L 19.28125 23.253906 C 22.597656 17.65625 28.621094 14.21875 35.128906 14.21875 Z M 35.128906 14.21875 " clip-rule="nonzero"/></clipPath></defs><g clip-path="url(#65f08c5a44)"><g clip-path="url(#d4da6d3c5d)"><path fill="#16ff80" d="M -3.921875 14.21875 L 131.675781 14.21875 L 131.675781 62.433594 L -3.921875 62.433594 Z M -3.921875 14.21875 " fill-opacity="1" fill-rule="nonzero"/></g></g><g fill="#1b1f1e" fill-opacity="1"><g transform="translate(10.814227, 52.665263)"><g><path d="M 17.140625 -22.21875 C 19.546875 -22.21875 21.476562 -21.453125 22.9375 -19.921875 C 24.40625 -18.390625 25.140625 -16.351562 25.140625 -13.8125 L 25.140625 0 L 18.15625 0 L 18.15625 -11.859375 C 18.15625 -13.128906 17.804688 -14.132812 17.109375 -14.875 C 16.421875 -15.625 15.484375 -16 14.296875 -16 C 13.046875 -16 12.019531 -15.59375 11.21875 -14.78125 C 10.425781 -13.96875 9.960938 -12.898438 9.828125 -11.578125 L 9.828125 0 L 2.796875 0 L 2.796875 -21.890625 L 9.828125 -21.890625 L 9.828125 -18.3125 C 11.367188 -20.851562 13.804688 -22.15625 17.140625 -22.21875 Z M 17.140625 -22.21875 "/></g></g></g><g fill="#1b1f1e" fill-opacity="1"><g transform="translate(35.823991, 52.665263)"><g><path d="M 24.125 -21.890625 L 24.125 0 L 17.09375 0 L 17.09375 -3.609375 C 15.601562 -1.015625 13.234375 0.28125 9.984375 0.28125 C 7.609375 0.28125 5.707031 -0.472656 4.28125 -1.984375 C 2.863281 -3.503906 2.15625 -5.535156 2.15625 -8.078125 L 2.15625 -21.890625 L 9.171875 -21.890625 L 9.171875 -10.078125 C 9.171875 -8.773438 9.503906 -7.75 10.171875 -7 C 10.835938 -6.257812 11.722656 -5.890625 12.828125 -5.890625 C 14.160156 -5.910156 15.203125 -6.398438 15.953125 -7.359375 C 16.710938 -8.328125 17.09375 -9.570312 17.09375 -11.09375 L 17.09375 -21.890625 Z M 24.125 -21.890625 "/></g></g></g><g fill="#1b1f1e" fill-opacity="1"><g transform="translate(60.427749, 52.665263)"><g><path d="M 10.640625 -22.21875 C 13.859375 -22.21875 16.863281 -21.390625 19.65625 -19.734375 L 17.265625 -15.1875 C 14.554688 -16.644531 12.253906 -17.375 10.359375 -17.375 C 8.921875 -17.375 8.203125 -16.875 8.203125 -15.875 C 8.203125 -15.332031 8.59375 -14.878906 9.375 -14.515625 C 10.164062 -14.148438 11.128906 -13.816406 12.265625 -13.515625 C 13.398438 -13.222656 14.53125 -12.851562 15.65625 -12.40625 C 16.78125 -11.957031 17.734375 -11.242188 18.515625 -10.265625 C 19.304688 -9.296875 19.703125 -8.109375 19.703125 -6.703125 C 19.703125 -4.503906 18.847656 -2.789062 17.140625 -1.5625 C 15.429688 -0.332031 13.210938 0.28125 10.484375 0.28125 C 6.609375 0.28125 3.332031 -0.742188 0.65625 -2.796875 L 2.890625 -7.265625 C 5.453125 -5.453125 8.035156 -4.546875 10.640625 -4.546875 C 12.234375 -4.546875 13.03125 -5.046875 13.03125 -6.046875 C 13.03125 -6.617188 12.644531 -7.09375 11.875 -7.46875 C 11.101562 -7.851562 10.160156 -8.191406 9.046875 -8.484375 C 7.941406 -8.785156 6.832031 -9.160156 5.71875 -9.609375 C 4.613281 -10.054688 3.675781 -10.75 2.90625 -11.6875 C 2.132812 -12.632812 1.75 -13.828125 1.75 -15.265625 C 1.75 -17.460938 2.570312 -19.171875 4.21875 -20.390625 C 5.875 -21.609375 8.015625 -22.21875 10.640625 -22.21875 Z M 10.640625 -22.21875 "/></g></g></g><g fill="#1b1f1e" fill-opacity="1"><g transform="translate(78.941409, 52.665263)"><g><path d="M 12.625 -22.21875 C 15.632812 -22.21875 17.96875 -21.519531 19.625 -20.125 C 21.289062 -18.726562 22.140625 -16.785156 22.171875 -14.296875 L 22.171875 0 L 15.3125 0 L 15.3125 -2.515625 C 13.875 -0.617188 11.640625 0.328125 8.609375 0.328125 C 6.304688 0.328125 4.476562 -0.304688 3.125 -1.578125 C 1.769531 -2.859375 1.09375 -4.507812 1.09375 -6.53125 C 1.09375 -8.625 1.816406 -10.242188 3.265625 -11.390625 C 4.710938 -12.535156 6.789062 -13.125 9.5 -13.15625 L 15.265625 -13.15625 L 15.265625 -13.484375 C 15.265625 -14.566406 14.90625 -15.410156 14.1875 -16.015625 C 13.46875 -16.628906 12.40625 -16.9375 11 -16.9375 C 9.03125 -16.9375 6.851562 -16.328125 4.46875 -15.109375 L 2.484375 -19.734375 C 6.023438 -21.390625 9.40625 -22.21875 12.625 -22.21875 Z M 10.765625 -4.421875 C 11.867188 -4.421875 12.835938 -4.695312 13.671875 -5.25 C 14.515625 -5.8125 15.046875 -6.539062 15.265625 -7.4375 L 15.265625 -9.375 L 10.84375 -9.375 C 8.726562 -9.375 7.671875 -8.59375 7.671875 -7.03125 C 7.671875 -6.21875 7.941406 -5.578125 8.484375 -5.109375 C 9.023438 -4.648438 9.785156 -4.421875 10.765625 -4.421875 Z M 10.765625 -4.421875 "/></g></g></g><g fill="#16ff80" fill-opacity="1"><g transform="translate(113.833905, 52.782199)"><g><path d="M 30.375 0 L 24.6875 0 L 24.65625 -16.46875 L 18.578125 -2.53125 L 14.375 -2.53125 L 8.296875 -16.46875 L 8.296875 0 L 2.53125 0 L 2.53125 -25.375 L 9.59375 -25.375 L 16.46875 -10.28125 L 23.34375 -25.375 L 30.375 -25.375 Z M 30.375 0 "/></g></g></g><g fill="#16ff80" fill-opacity="1"><g transform="translate(144.705268, 52.782199)"><g><path d="M 11.265625 -19.796875 C 13.941406 -19.796875 16.019531 -19.175781 17.5 -17.9375 C 18.988281 -16.695312 19.742188 -14.96875 19.765625 -12.75 L 19.765625 0 L 13.65625 0 L 13.65625 -2.25 C 12.375 -0.550781 10.378906 0.296875 7.671875 0.296875 C 5.617188 0.296875 3.988281 -0.269531 2.78125 -1.40625 C 1.582031 -2.539062 0.984375 -4.015625 0.984375 -5.828125 C 0.984375 -7.679688 1.625 -9.117188 2.90625 -10.140625 C 4.195312 -11.171875 6.050781 -11.703125 8.46875 -11.734375 L 13.609375 -11.734375 L 13.609375 -12.015625 C 13.609375 -12.984375 13.285156 -13.738281 12.640625 -14.28125 C 12.003906 -14.820312 11.0625 -15.09375 9.8125 -15.09375 C 8.050781 -15.09375 6.109375 -14.550781 3.984375 -13.46875 L 2.203125 -17.59375 C 5.367188 -19.0625 8.390625 -19.796875 11.265625 -19.796875 Z M 9.59375 -3.953125 C 10.582031 -3.953125 11.453125 -4.195312 12.203125 -4.6875 C 12.953125 -5.1875 13.421875 -5.832031 13.609375 -6.625 L 13.609375 -8.359375 L 9.671875 -8.359375 C 7.785156 -8.359375 6.84375 -7.660156 6.84375 -6.265625 C 6.84375 -5.535156 7.082031 -4.96875 7.5625 -4.5625 C 8.050781 -4.15625 8.726562 -3.953125 9.59375 -3.953125 Z M 9.59375 -3.953125 "/></g></g></g><g fill="#16ff80" fill-opacity="1"><g transform="translate(164.357117, 52.782199)"><g><path d="M 8.765625 -19.515625 L 8.765625 -16.21875 C 10.140625 -18.5625 12.25 -19.753906 15.09375 -19.796875 L 15.09375 -14.15625 C 13.3125 -14.320312 11.851562 -14.023438 10.71875 -13.265625 C 9.582031 -12.503906 8.929688 -11.425781 8.765625 -10.03125 L 8.765625 0 L 2.5 0 L 2.5 -19.515625 Z M 8.765625 -19.515625 "/></g></g></g><g fill="#16ff80" fill-opacity="1"><g transform="translate(177.747756, 52.782199)"><g><path d="M 11.046875 -7.53125 L 8.9375 -5.328125 L 8.9375 0 L 2.671875 0 L 2.671875 -26.859375 L 8.9375 -26.859375 L 8.9375 -12.671875 L 15.390625 -19.515625 L 22.484375 -19.515625 L 15.3125 -12.015625 L 22.703125 0 L 15.28125 0 Z M 11.046875 -7.53125 "/></g></g></g><g fill="#16ff80" fill-opacity="1"><g transform="translate(198.485365, 52.782199)"><g><path d="M 11.046875 -19.734375 C 14.421875 -19.734375 16.957031 -18.691406 18.65625 -16.609375 C 20.363281 -14.535156 21.109375 -11.691406 20.890625 -8.078125 L 7.171875 -8.078125 C 7.484375 -6.910156 8.035156 -6.015625 8.828125 -5.390625 C 9.628906 -4.765625 10.609375 -4.453125 11.765625 -4.453125 C 13.546875 -4.453125 15.101562 -5.113281 16.4375 -6.4375 L 19.734375 -3.21875 C 17.628906 -0.925781 14.789062 0.21875 11.21875 0.21875 C 8.0625 0.21875 5.546875 -0.6875 3.671875 -2.5 C 1.804688 -4.3125 0.875 -6.710938 0.875 -9.703125 C 0.875 -12.722656 1.804688 -15.148438 3.671875 -16.984375 C 5.546875 -18.816406 8.003906 -19.734375 11.046875 -19.734375 Z M 7.0625 -11.4375 L 14.875 -11.4375 C 14.875 -12.625 14.53125 -13.578125 13.84375 -14.296875 C 13.15625 -15.023438 12.242188 -15.390625 11.109375 -15.390625 C 10.046875 -15.390625 9.148438 -15.03125 8.421875 -14.3125 C 7.703125 -13.601562 7.25 -12.644531 7.0625 -11.4375 Z M 7.0625 -11.4375 "/></g></g></g><g fill="#16ff80" fill-opacity="1"><g transform="translate(218.209602, 52.782199)"><g><path d="M 13.859375 -5.390625 L 15.09375 -1.046875 C 13.570312 -0.148438 11.835938 0.296875 9.890625 0.296875 C 7.953125 0.296875 6.382812 -0.238281 5.1875 -1.3125 C 4 -2.394531 3.40625 -3.925781 3.40625 -5.90625 L 3.40625 -14.515625 L 0.6875 -14.515625 L 0.6875 -18.609375 L 3.40625 -18.609375 L 3.40625 -24.03125 L 9.625 -24.03125 L 9.625 -18.640625 L 14.734375 -18.640625 L 14.734375 -14.515625 L 9.625 -14.515625 L 9.625 -6.875 C 9.625 -6.125 9.773438 -5.570312 10.078125 -5.21875 C 10.378906 -4.875 10.832031 -4.71875 11.4375 -4.75 C 12.019531 -4.75 12.828125 -4.960938 13.859375 -5.390625 Z M 13.859375 -5.390625 "/></g></g></g><g fill="#16ff80" fill-opacity="1"><g transform="translate(231.889773, 52.782199)"><g><path d="M 14.40625 -25.5625 C 16.289062 -25.5625 18.144531 -25.175781 19.96875 -24.40625 C 21.789062 -23.632812 23.34375 -22.59375 24.625 -21.28125 L 20.890625 -16.875 C 20.066406 -17.882812 19.082031 -18.6875 17.9375 -19.28125 C 16.789062 -19.875 15.648438 -20.171875 14.515625 -20.171875 C 12.515625 -20.171875 10.835938 -19.460938 9.484375 -18.046875 C 8.128906 -16.628906 7.453125 -14.882812 7.453125 -12.8125 C 7.453125 -10.6875 8.128906 -8.910156 9.484375 -7.484375 C 10.835938 -6.066406 12.515625 -5.359375 14.515625 -5.359375 C 15.578125 -5.359375 16.679688 -5.625 17.828125 -6.15625 C 18.972656 -6.6875 19.992188 -7.410156 20.890625 -8.328125 L 24.65625 -4.34375 C 23.28125 -2.945312 21.65625 -1.820312 19.78125 -0.96875 C 17.914062 -0.125 16.050781 0.296875 14.1875 0.296875 C 10.375 0.296875 7.203125 -0.945312 4.671875 -3.4375 C 2.140625 -5.925781 0.875 -9.03125 0.875 -12.75 C 0.875 -16.382812 2.160156 -19.425781 4.734375 -21.875 C 7.316406 -24.332031 10.539062 -25.5625 14.40625 -25.5625 Z M 14.40625 -25.5625 "/></g></g></g><g fill="#16ff80" fill-opacity="1"><g transform="translate(254.871274, 52.782199)"><g><path d="M 11.265625 -19.796875 C 13.941406 -19.796875 16.019531 -19.175781 17.5 -17.9375 C 18.988281 -16.695312 19.742188 -14.96875 19.765625 -12.75 L 19.765625 0 L 13.65625 0 L 13.65625 -2.25 C 12.375 -0.550781 10.378906 0.296875 7.671875 0.296875 C 5.617188 0.296875 3.988281 -0.269531 2.78125 -1.40625 C 1.582031 -2.539062 0.984375 -4.015625 0.984375 -5.828125 C 0.984375 -7.679688 1.625 -9.117188 2.90625 -10.140625 C 4.195312 -11.171875 6.050781 -11.703125 8.46875 -11.734375 L 13.609375 -11.734375 L 13.609375 -12.015625 C 13.609375 -12.984375 13.285156 -13.738281 12.640625 -14.28125 C 12.003906 -14.820312 11.0625 -15.09375 9.8125 -15.09375 C 8.050781 -15.09375 6.109375 -14.550781 3.984375 -13.46875 L 2.203125 -17.59375 C 5.367188 -19.0625 8.390625 -19.796875 11.265625 -19.796875 Z M 9.59375 -3.953125 C 10.582031 -3.953125 11.453125 -4.195312 12.203125 -4.6875 C 12.953125 -5.1875 13.421875 -5.832031 13.609375 -6.625 L 13.609375 -8.359375 L 9.671875 -8.359375 C 7.785156 -8.359375 6.84375 -7.660156 6.84375 -6.265625 C 6.84375 -5.535156 7.082031 -4.96875 7.5625 -4.5625 C 8.050781 -4.15625 8.726562 -3.953125 9.59375 -3.953125 Z M 9.59375 -3.953125 "/></g></g></g><g fill="#16ff80" fill-opacity="1"><g transform="translate(274.523115, 52.782199)"><g><path d="M 14.765625 -19.734375 C 17.515625 -19.734375 19.726562 -18.804688 21.40625 -16.953125 C 23.09375 -15.109375 23.9375 -12.679688 23.9375 -9.671875 C 23.9375 -6.703125 23.113281 -4.3125 21.46875 -2.5 C 19.820312 -0.6875 17.640625 0.21875 14.921875 0.21875 C 12.359375 0.21875 10.363281 -0.722656 8.9375 -2.609375 L 8.9375 7.015625 L 2.671875 7.015625 L 2.671875 -19.515625 L 8.9375 -19.515625 L 8.9375 -16.9375 C 10.382812 -18.800781 12.328125 -19.734375 14.765625 -19.734375 Z M 13.25 -4.75 C 14.550781 -4.75 15.601562 -5.222656 16.40625 -6.171875 C 17.21875 -7.128906 17.625 -8.351562 17.625 -9.84375 C 17.625 -11.34375 17.21875 -12.5625 16.40625 -13.5 C 15.601562 -14.445312 14.550781 -14.921875 13.25 -14.921875 C 12 -14.921875 10.96875 -14.445312 10.15625 -13.5 C 9.34375 -12.5625 8.9375 -11.34375 8.9375 -9.84375 C 8.9375 -8.320312 9.332031 -7.09375 10.125 -6.15625 C 10.925781 -5.21875 11.96875 -4.75 13.25 -4.75 Z M 13.25 -4.75 "/></g></g></g></svg>